<?xml version="1.0" encoding="utf-8"?>
<!-- Generator: Adobe Illustrator 24.3.0, SVG Export Plug-In . SVG Version: 6.00 Build 0)  -->
<svg version="1.1" id="Layer_1" xmlns="http://www.w3.org/2000/svg" xmlns:xlink="http://www.w3.org/1999/xlink" x="0px" y="0px"
	 viewBox="0 0 512 512" style="enable-background:new 0 0 512 512;" xml:space="preserve">
<style type="text/css">
	.st0{fill:#FFFFFF;stroke:#2D2D2D;stroke-width:4;}
	.st1{fill:#11C4E0;}
	.st2{fill:none;}
	.st3{fill:#2D2D2D;}
</style>
<g id="Group_68" transform="translate(-600.196 -655.125)">
	<g id="Group_43" transform="translate(-2930.904 -1713.075)">
		<path id="Path_61" class="st0" d="M3718.9,2506.7c-18.3,0-33.1,14.8-33.1,33c0,0,0,0,0,0.1l0,0v169.7c0,16.8,13.6,30.5,30.5,30.5
			l0,0h115.9c16.8,0,30.4-13.6,30.4-30.4l0,0l0,0v-202.9L3718.9,2506.7L3718.9,2506.7z"/>
		<path id="Path_62" class="st1" d="M3832.9,2741.7h-149.4c-16.6,0-29.9-17.9-29.9-39.9v-0.6h148.9l0.4,0.3v0.3
			C3802.9,2723.8,3816.3,2741.7,3832.9,2741.7z"/>
		<g id="Group_48" transform="translate(3459.373 2298.916)">
			<g id="Group_43-2">
				<line id="Line_18" class="st2" x1="256.6" y1="279.5" x2="280.6" y2="279.5"/>
				<rect id="Rectangle_27" x="256.6" y="277.5" class="st3" width="24" height="3.6"/>
			</g>
			<g id="Group_44" transform="translate(22.316 69.124)">
				<line id="Line_19" class="st2" x1="255.2" y1="275.2" x2="282.8" y2="275.2"/>
				<rect id="Rectangle_28" x="255.2" y="273.2" class="st3" width="27.6" height="3.6"/>
			</g>
			<g id="Group_45" transform="translate(0 21.227)">
				<line id="Line_20" class="st2" x1="256.6" y1="278.2" x2="305.1" y2="278.2"/>
				<rect id="Rectangle_29" x="256.6" y="276.2" class="st3" width="48.5" height="3.6"/>
			</g>
			<g id="Group_46" transform="translate(0 35.923)">
				<line id="Line_21" class="st2" x1="256.6" y1="277.3" x2="305.1" y2="277.3"/>
				<rect id="Rectangle_30" x="256.6" y="275.2" class="st3" width="48.5" height="3.6"/>
			</g>
			<g id="Group_47" transform="translate(0 50.074)">
				<line id="Line_22" class="st2" x1="256.6" y1="276.4" x2="305.1" y2="276.4"/>
				<rect id="Rectangle_31" x="256.6" y="274.4" class="st3" width="48.5" height="3.6"/>
			</g>
		</g>
	</g>
	<path id="Path_67" class="st1" d="M905,828.3l-34.2,34.2l-12.6-12.6c-0.6-0.6-1.6-0.6-2.2,0l-3.7,3.7c-0.6,0.6-0.6,1.6,0,2.2
		l17.3,17.3c0.6,0.6,1.6,0.6,2.2,0l39-39c0.6-0.6,0.6-1.6,0-2.2l-3.7-3.7C906.5,827.7,905.5,827.7,905,828.3z"/>
</g>
</svg>
