<?xml version="1.0" encoding="utf-8"?>
<!-- Generator: Adobe Illustrator 24.3.0, SVG Export Plug-In . SVG Version: 6.00 Build 0)  -->
<svg version="1.1" id="Layer_1" xmlns="http://www.w3.org/2000/svg" xmlns:xlink="http://www.w3.org/1999/xlink" x="0px" y="0px"
	 viewBox="0 0 512 512" style="enable-background:new 0 0 512 512;" xml:space="preserve">
<style type="text/css">
	.st0{fill:#11C4E0;}
	.st1{fill:#FFFFFF;stroke:#2D2D2D;stroke-width:4;}
	.st2{fill:#FFFFFF;stroke:#2D2D2D;stroke-width:3.999;stroke-miterlimit:3.999;}
</style>
<g id="Group_7" transform="translate(-1620.741 -3550.894)">
	<path id="Path_16" class="st0" d="M1833.1,3908.6c17.9,28.1,62,29.9,81.3,13.2c-0.3-0.2-0.6-0.3-0.9-0.6c-0.6-0.6-1.2-1.2-1.7-1.9
		c-1.8-2.5-0.8-4.1,0.2-5.1c0.7-0.5,1.4-0.9,2.2-1c4.9-0.9,15-2.4,16.8,0.3c2.2,3.3-1.2,11.4-3,16.2c-0.8,2.2-2.3,3.8-4.8,3
		c-1.3-0.5-2.2-2.2-3.6-3.7c-4,1.7-5.7,3.4-10.4,5.4c-18.6,8.4-35.4,5.9-53.1-2.5c-7.4-3.4-13.8-8.8-18.6-15.5
		C1836.1,3914.1,1834.7,3911.3,1833.1,3908.6z"/>
	<path id="Path_17" class="st0" d="M1819.2,3718.4c-33.4-0.3-58.7,35.8-55.4,61.1c0.3-0.2,0.6-0.4,0.9-0.5c0.8-0.2,1.7-0.3,2.5-0.4
		c3.1-0.1,3.9,1.6,4.1,2.9c0.1,0.8,0,1.7-0.4,2.4c-1.9,4.6-6.1,13.9-9.4,14c-3.9,0-8.9-7.2-12-11.2c-1.4-2-2-4.1,0-5.6
		c1.1-0.8,3.1-0.7,5.1-0.9c0.7-4.3,0.2-6.7,1-11.7c3-20.1,14.3-33,31-43.2c6.9-4.4,14.9-6.8,23-7.1
		C1812.9,3718.1,1816,3718.3,1819.2,3718.4z"/>
	<path id="Path_18" class="st0" d="M1995,3798.6c11.9-31.2-13.1-67.5-38-73.2c0.1,0.3,0.1,0.7,0.1,1c-0.1,0.8-0.3,1.6-0.6,2.4
		c-0.9,2.9-2.8,3.1-4.2,2.8c-0.8-0.2-1.6-0.6-2.2-1.2c-3.7-3.4-10.9-10.6-9.7-13.6c1.4-3.7,9.8-5.9,14.7-7.3c2.3-0.7,4.5-0.4,5.2,2
		c0.4,1.3-0.5,3.1-0.8,5.1c3.7,2.2,6.1,2.5,10.6,5.1c17.8,9.8,26,24.9,29.7,44.1c1.7,8,1.2,16.4-1.3,24.2
		C1997.4,3793,1996.3,3795.8,1995,3798.6z"/>
	<g id="Group_4" transform="translate(1596.883 3435.994)">
		<path id="Path_19" class="st1" d="M330.5,320.8v28.1c0,0.6,0,0.7-0.6,0.7h-88.8c-0.6,0-1-0.1-1-0.7v-29.4
			c0.3-6.5,2.8-12.6,7.2-17.3l0.4-0.4c2.1-2.2,4.5-4,7.2-5.3c0.2-0.1,0.3-0.2,0.5-0.3c0.7-0.4,1.5-0.7,2.2-0.9
			c0.2-0.1,0.4-0.1,0.6-0.2c0.7-0.2,1.4-0.4,2.2-0.6c0.9,0.9,1.8,1.7,2.7,2.4c2.5,1.9,5.1,3.5,8,4.8c0.5,0.3,1,0.5,1.6,0.7
			c6.4,2.5,13.5,3.1,20.2,1.7c0.3-0.1,0.6-0.2,0.9-0.2h1.3c1.2,0,2.3-0.9,3.5-1.4c0.5-0.2,0.9-0.6,1.3-0.7c2.2-1,4.3-2.3,6.3-3.7
			l0,0c0.3-0.1,0.5-0.2,0.7-0.4c1.3-0.9,2.5-2,3.7-3.1c11.1,2.6,19.4,12.8,20,25.1C330.6,319.8,330.5,320.3,330.5,320.8z"/>
		<circle id="Ellipse_1" class="st1" cx="285.4" cy="276.8" r="29.2"/>
	</g>
	<g id="Group_5" transform="translate(1520.078 3549.784)">
		<path id="Path_20" class="st1" d="M335.4,319.6v28.1c0,0.6,0,0.7-0.6,0.7H246c-0.6,0-1-0.1-1-0.7v-29.4c0.3-6.5,2.8-12.6,7.2-17.3
			l0.4-0.4c2.1-2.2,4.5-4,7.2-5.3c0.2-0.1,0.3-0.2,0.5-0.3c0.7-0.4,1.5-0.7,2.2-0.9c0.2-0.1,0.4-0.1,0.6-0.2
			c0.7-0.2,1.4-0.4,2.2-0.6c0.9,0.9,1.8,1.7,2.7,2.4c2.5,1.9,5.1,3.5,8,4.8c0.5,0.3,1,0.5,1.6,0.7c6.4,2.5,13.5,3.1,20.2,1.7
			c0.3-0.1,0.6-0.2,0.9-0.2h1.3c1.2,0,2.3-0.9,3.5-1.4c0.5-0.2,0.9-0.6,1.3-0.7c2.2-1,4.3-2.3,6.3-3.7l0,0c0.3-0.1,0.5-0.2,0.7-0.4
			c1.3-0.9,2.5-2,3.7-3.1c11.1,2.6,19.4,12.8,20,25.1C335.5,318.6,335.4,319.1,335.4,319.6z"/>
		<circle id="Ellipse_2" class="st2" cx="290.2" cy="275.5" r="29.2"/>
	</g>
	<g id="Group_6" transform="translate(1673.689 3549.784)">
		<path id="Path_21" class="st1" d="M325.7,319.6v28.1c0,0.6,0,0.7-0.6,0.7h-88.8c-0.6,0-1-0.1-1-0.7v-29.4
			c0.3-6.5,2.8-12.6,7.2-17.3l0.4-0.4c2.1-2.2,4.5-4,7.2-5.3c0.2-0.1,0.3-0.2,0.5-0.3c0.7-0.4,1.5-0.7,2.2-0.9
			c0.2-0.1,0.4-0.1,0.6-0.2c0.7-0.2,1.4-0.4,2.2-0.6c0.9,0.9,1.8,1.7,2.7,2.4c2.5,1.9,5.1,3.5,8,4.8c0.5,0.3,1,0.5,1.6,0.7
			c6.4,2.5,13.5,3.1,20.2,1.7c0.3-0.1,0.6-0.2,0.9-0.2h1.3c1.2,0,2.3-0.9,3.5-1.4c0.5-0.2,0.9-0.6,1.3-0.7c2.2-1,4.3-2.3,6.3-3.7
			l0,0c0.3-0.1,0.5-0.2,0.7-0.4c1.3-0.9,2.5-2,3.7-3.1c11.1,2.6,19.4,12.8,20,25.1C325.8,318.6,325.7,319.1,325.7,319.6z"/>
		<circle id="Ellipse_3" class="st2" cx="280.5" cy="275.5" r="29.2"/>
	</g>
</g>
</svg>
