<?xml version="1.0" encoding="utf-8"?>
<!-- Generator: Adobe Illustrator 24.3.0, SVG Export Plug-In . SVG Version: 6.00 Build 0)  -->
<svg version="1.1" id="Layer_1" xmlns="http://www.w3.org/2000/svg" xmlns:xlink="http://www.w3.org/1999/xlink" x="0px" y="0px"
	 viewBox="0 0 512 512" style="enable-background:new 0 0 512 512;" xml:space="preserve">
<style type="text/css">
	.st0{fill:#FFFFFF;stroke:#2D2D2D;stroke-width:5;}
	.st1{fill:#11C4E0;}
</style>
<g id="Group_8" transform="translate(-6179.1 -4038.9)">
	<path id="Path_22" class="st0" d="M6517.3,4240.6c-0.9,0-1.7,0-2.6,0.1v-0.1c0-31.3-27.5-56.8-61.4-56.8c-27.7,0-51.1,17-58.8,40.3
		c-7.4-2.8-15.3-4.2-23.2-4.2c-33.9,0-61.4,25.6-61.4,56.9s27.5,56.9,61.4,56.9h145.9c27.8,0,50.3-20.9,50.3-46.6
		S6545,4240.6,6517.3,4240.6z"/>
	<path id="Path_24" class="st1" d="M6438.4,4262.9L6438.4,4262.9l-44.7,49.6l15.2-0.2v93.7h59v-93.6l15.2,0.2L6438.4,4262.9z"/>
</g>
</svg>
