<?xml version="1.0" encoding="utf-8"?>
<!-- Generator: Adobe Illustrator 24.3.0, SVG Export Plug-In . SVG Version: 6.00 Build 0)  -->
<svg version="1.1" id="Layer_1" xmlns="http://www.w3.org/2000/svg" xmlns:xlink="http://www.w3.org/1999/xlink" x="0px" y="0px"
	 viewBox="0 0 512 512" style="enable-background:new 0 0 512 512;" xml:space="preserve">
<style type="text/css">
	.st0{fill:#FFFFFF;stroke:#2D2D2D;stroke-width:4;}
	.st1{fill:#11C4E0;}
</style>
<g id="Group_15" transform="translate(-4900.886 -3994.958)">
	<g id="Group_10" transform="translate(4870.084 3864.558)">
		<g id="Group_9" transform="translate(19.566)">
			<path id="Path_25" class="st0" d="M299.7,281.1v1.3c0,0.5-0.1,0.9-0.1,1.3c-0.1,0.7-0.2,1.3-0.3,1.9c-0.1,0.7-0.3,1.4-0.5,2
				c-0.3,1.3-0.8,2.5-1.3,3.7c-0.1,0.1-0.2,0.3-0.2,0.5c-0.3,0.6-0.6,1.2-1,1.8c-0.1,0.2-0.2,0.3-0.3,0.5c-1.2,2-2.7,3.9-4.4,5.6
				l-0.5,0.5c-0.3,0.3-0.6,0.5-0.9,0.8c-0.2,0.2-0.4,0.3-0.6,0.5c-0.4,0.4-0.9,0.7-1.3,1l-0.2,0.1c-0.6,0.4-1.2,0.8-1.9,1.2
				c-0.6,0.3-1.2,0.6-1.8,0.9c-0.1,0-0.1,0-0.1,0.1v0c-1.2,0.5-2.5,1-3.7,1.3c-0.3,0.1-0.6,0.2-0.9,0.2c-1.3,0.3-2.7,0.5-4,0.7
				c-0.5,0-0.9,0.1-1.3,0.1h-1.3c-0.4,0-0.9,0-1.3-0.1c-1.4-0.1-2.7-0.3-4-0.7c-0.3-0.1-0.6-0.1-0.9-0.2c-1.3-0.3-2.5-0.8-3.7-1.3
				c-0.1,0-0.1,0-0.1-0.1v0c-0.6-0.3-1.1-0.5-1.6-0.8c-0.7-0.4-1.4-0.8-2.1-1.2c-0.1,0-0.1-0.1-0.2-0.1c-0.5-0.3-0.9-0.6-1.3-1
				c-0.2-0.2-0.4-0.3-0.6-0.5c-0.3-0.3-0.6-0.5-0.9-0.8c-0.3-0.3-0.7-0.6-1-0.9c-1.5-1.5-2.8-3.2-3.9-5.1c-0.1-0.2-0.2-0.3-0.3-0.5
				c-0.3-0.6-0.6-1.2-0.9-1.8c-0.1-0.1-0.2-0.3-0.2-0.5c-0.5-1.2-1-2.5-1.3-3.7c-0.2-0.7-0.3-1.3-0.5-2c-0.1-0.7-0.2-1.2-0.3-1.9
				c0-0.5-0.1-0.9-0.1-1.3v-1.3c0-0.5,0.1-0.9,0.1-1.3c0-0.3,0.1-0.6,0.1-0.8l0,0c0-0.2-0.1-0.3,0-0.5v-0.5c0.1-0.5,0.1-1,0.2-1.4
				c0.1-0.7,0.3-1.4,0.5-2c0.3-1.3,0.8-2.5,1.3-3.7c0-0.1,0.1-0.2,0.1-0.3c0-0.1,0.1-0.2,0.1-0.3c0.3-0.6,0.6-1.2,0.9-1.8
				c0.1-0.2,0.2-0.3,0.3-0.5c1.2-2,2.7-3.9,4.4-5.6l0.5-0.5c0.3-0.3,0.6-0.5,0.9-0.8c0.2-0.2,0.4-0.3,0.6-0.5c0.4-0.4,0.9-0.7,1.3-1
				c0.1,0,0.1-0.1,0.2-0.1c1.2-0.8,2.4-1.4,3.6-2l0.1-0.1c1.2-0.5,2.5-1,3.7-1.3c0.3-0.1,0.6-0.2,0.9-0.2c1.3-0.3,2.7-0.5,4-0.7
				c0.5,0,0.9-0.1,1.3-0.1h1.3c0.4,0,0.9,0,1.3,0.1c1.4,0.1,2.7,0.3,4,0.7c0.3,0.1,0.6,0.1,0.9,0.2c1.3,0.3,2.5,0.8,3.7,1.3l0.1,0.1
				c1.3,0.6,2.5,1.2,3.6,2l0.2,0.1c0.5,0.3,0.9,0.6,1.3,1c0.2,0.2,0.4,0.3,0.6,0.5c0.3,0.3,0.6,0.5,0.9,0.8l0.5,0.5
				c1.7,1.7,3.2,3.5,4.4,5.6c0.1,0.2,0.2,0.3,0.3,0.5c0.3,0.6,0.7,1.2,1,1.8c0.1,0.1,0.2,0.3,0.2,0.5c0.5,1.2,1,2.5,1.3,3.7
				c0.2,0.7,0.3,1.3,0.5,2c0.1,0.7,0.2,1.2,0.3,1.9c0,0.2,0,0.4,0.1,0.6v0.7C299.7,280.2,299.8,280.6,299.7,281.1z"/>
		</g>
		<path id="Path_26" class="st0" d="M336.3,331.9v26.8c0,0.6,0,0.7-0.5,0.7H251c-0.5,0-1-0.1-1-0.7v-28.1c0.3-6.2,2.7-12,6.9-16.6
			c0.1-0.1,0.2-0.3,0.4-0.4c2-2.1,4.3-3.8,6.9-5.1c0.2-0.1,0.3-0.2,0.5-0.2c0.7-0.3,1.4-0.6,2.2-0.9c0.2-0.1,0.3-0.1,0.5-0.2l2-0.6
			l2.6,2.3c2.3,1.8,4.9,3.3,7.6,4.5c0.5,0.2,1.1,0.5,1.5,0.7c6.2,2.4,12.9,2.9,19.4,1.5c0.3-0.1,0.6-0.1,0.9-0.2h1.2
			c1.2,0,2.2-0.9,3.4-1.3c0.4-0.2,0.8-0.5,1.2-0.8c2.1-1,4.1-2.2,5.9-3.6l0,0c0.2,0,0.4-0.2,0.6-0.4c1.2-0.9,2.4-1.9,3.5-3
			c10.6,2.5,18.5,12.3,19.1,24C336.4,330.9,336.4,331.4,336.3,331.9z"/>
	</g>
	<g id="Group_12" transform="translate(4777.686 4010.262)">
		<g id="Group_11" transform="translate(19.566)">
			<path id="Path_27" class="st0" d="M309.7,265.3v1.3c0,0.5-0.1,0.9-0.1,1.3c-0.1,0.7-0.2,1.3-0.3,1.9c-0.1,0.7-0.3,1.4-0.5,2
				c-0.3,1.3-0.8,2.5-1.3,3.7c-0.1,0.1-0.2,0.3-0.2,0.5c-0.3,0.6-0.6,1.2-1,1.8c-0.1,0.2-0.2,0.3-0.3,0.5c-1.2,2-2.7,3.9-4.4,5.6
				l-0.5,0.5c-0.3,0.3-0.6,0.5-0.9,0.8c-0.2,0.2-0.4,0.3-0.6,0.5c-0.4,0.4-0.9,0.7-1.3,1c-0.1,0-0.1,0.1-0.2,0.1
				c-0.6,0.4-1.2,0.8-1.9,1.2c-0.6,0.3-1.2,0.6-1.8,0.9l-0.1,0.1c-1.2,0.5-2.5,1-3.7,1.3c-0.3,0.1-0.6,0.2-0.9,0.2
				c-1.3,0.3-2.7,0.5-4,0.7c-0.5,0-0.9,0.1-1.3,0.1h-1.3c-0.4,0-0.9,0-1.3-0.1c-1.4-0.1-2.7-0.3-4-0.7c-0.3-0.1-0.6-0.1-0.9-0.2
				c-1.3-0.3-2.5-0.8-3.7-1.3l-0.1-0.1c-0.6-0.3-1.1-0.5-1.6-0.8c-0.7-0.4-1.4-0.8-2.1-1.2c-0.1,0-0.1-0.1-0.2-0.1
				c-0.5-0.3-0.9-0.6-1.3-1c-0.2-0.2-0.4-0.3-0.6-0.5c-0.3-0.3-0.6-0.5-0.9-0.8c-0.3-0.3-0.7-0.6-1-0.9c-1.5-1.5-2.8-3.2-3.9-5.1
				c-0.1-0.2-0.2-0.3-0.3-0.5c-0.3-0.6-0.6-1.2-0.9-1.8c-0.1-0.1-0.2-0.3-0.2-0.5c-0.5-1.2-1-2.5-1.3-3.7c-0.2-0.7-0.3-1.3-0.5-2
				c-0.1-0.7-0.2-1.2-0.3-1.9c0-0.5-0.1-0.9-0.1-1.3v-1.3c0-0.5,0.1-0.9,0.1-1.3c0-0.3,0.1-0.6,0.1-0.8l0,0c0-0.2-0.1-0.3,0-0.5
				v-0.5c0.1-0.5,0.1-1,0.2-1.4c0.1-0.7,0.3-1.4,0.5-2c0.3-1.3,0.8-2.5,1.3-3.7c0-0.1,0.1-0.2,0.1-0.3s0.1-0.2,0.1-0.3
				c0.3-0.6,0.6-1.2,0.9-1.8c0.1-0.2,0.2-0.3,0.3-0.5c1.2-2,2.7-3.9,4.4-5.6l0.5-0.5c0.3-0.3,0.6-0.5,0.9-0.8
				c0.2-0.2,0.4-0.3,0.6-0.5c0.4-0.4,0.9-0.7,1.3-1c0.1,0,0.1-0.1,0.2-0.1c1.2-0.8,2.4-1.4,3.6-2c0.1,0,0.1,0,0.1-0.1c0,0,0,0,0,0
				c1.2-0.5,2.5-1,3.7-1.3c0.3-0.1,0.6-0.2,0.9-0.2c1.3-0.3,2.7-0.5,4-0.7c0.5,0,0.9-0.1,1.3-0.1h1.3c0.4,0,0.9,0,1.3,0.1
				c1.4,0.1,2.7,0.3,4,0.7c0.3,0.1,0.6,0.1,0.9,0.2c1.3,0.3,2.5,0.8,3.7,1.3c0.1,0,0.1,0,0.1,0.1c0,0,0,0,0,0c1.3,0.6,2.5,1.2,3.6,2
				l0.2,0.1c0.5,0.3,0.9,0.6,1.3,1c0.2,0.2,0.4,0.3,0.6,0.5c0.3,0.3,0.6,0.5,0.9,0.8l0.5,0.5c1.7,1.7,3.2,3.5,4.4,5.6
				c0.1,0.2,0.2,0.3,0.3,0.5c0.3,0.6,0.7,1.2,1,1.8c0.1,0.1,0.2,0.3,0.2,0.5c0.5,1.2,1,2.5,1.3,3.7c0.2,0.7,0.3,1.3,0.5,2
				c0.1,0.7,0.2,1.2,0.3,1.9c0,0.2,0,0.4,0.1,0.6v0.7C309.7,264.4,309.8,264.9,309.7,265.3z"/>
		</g>
		<path id="Path_28" class="st0" d="M346.3,316v26.8c0,0.6,0,0.7-0.5,0.7H261c-0.5,0-1-0.1-1-0.7v-28.1c0.3-6.2,2.7-12,6.9-16.6
			c0.1-0.1,0.2-0.3,0.4-0.4c2-2.1,4.3-3.8,6.9-5.1c0.2-0.1,0.3-0.2,0.5-0.2c0.7-0.3,1.4-0.6,2.2-0.9c0.2-0.1,0.3-0.1,0.5-0.2l2-0.6
			l2.6,2.3c2.3,1.8,4.9,3.3,7.6,4.5c0.5,0.2,1.1,0.5,1.5,0.7c6.2,2.4,12.9,2.9,19.4,1.6c0.3-0.1,0.6-0.1,0.9-0.2h1.2
			c1.2,0,2.2-0.9,3.4-1.3c0.4-0.2,0.8-0.5,1.2-0.8c2.1-1,4.1-2.2,5.9-3.6l0,0c0.2,0,0.4-0.2,0.6-0.4c1.2-0.9,2.4-1.9,3.5-3
			c10.6,2.5,18.5,12.2,19.1,24C346.3,315.1,346.3,315.6,346.3,316z"/>
	</g>
	<g id="Group_14" transform="translate(4957.745 4010.262)">
		<g id="Group_13" transform="translate(19.565)">
			<path id="Path_29" class="st0" d="M290.3,265.3v1.3c0,0.5-0.1,0.9-0.1,1.3c-0.1,0.7-0.2,1.3-0.3,1.9c-0.1,0.7-0.3,1.4-0.5,2
				c-0.3,1.3-0.8,2.5-1.3,3.7c-0.1,0.1-0.2,0.3-0.2,0.5c-0.3,0.6-0.6,1.2-1,1.8c-0.1,0.2-0.2,0.3-0.3,0.5c-1.2,2-2.7,3.9-4.4,5.6
				l-0.5,0.5c-0.3,0.3-0.6,0.5-0.9,0.8c-0.2,0.2-0.4,0.3-0.6,0.5c-0.4,0.4-0.9,0.7-1.3,1c-0.1,0-0.1,0.1-0.2,0.1
				c-0.6,0.4-1.2,0.8-1.9,1.2c-0.6,0.3-1.2,0.6-1.8,0.9l-0.1,0.1c-1.2,0.5-2.5,1-3.7,1.3c-0.3,0.1-0.6,0.2-0.9,0.2
				c-1.3,0.3-2.7,0.5-4,0.7c-0.5,0-0.9,0.1-1.3,0.1h-1.3c-0.4,0-0.9,0-1.3-0.1c-1.4-0.1-2.7-0.3-4-0.7c-0.3-0.1-0.6-0.1-0.9-0.2
				c-1.3-0.3-2.5-0.8-3.7-1.3l-0.1-0.1c-0.6-0.3-1.1-0.5-1.6-0.8c-0.7-0.4-1.4-0.8-2.1-1.2c-0.1,0-0.1-0.1-0.2-0.1
				c-0.5-0.3-0.9-0.6-1.3-1c-0.2-0.2-0.4-0.3-0.6-0.5c-0.3-0.3-0.6-0.5-0.9-0.8c-0.3-0.3-0.7-0.6-1-0.9c-1.5-1.5-2.8-3.2-3.9-5.1
				c-0.1-0.2-0.2-0.3-0.3-0.5c-0.3-0.6-0.6-1.2-0.9-1.8c-0.1-0.1-0.2-0.3-0.2-0.5c-0.5-1.2-1-2.5-1.3-3.7c-0.2-0.7-0.3-1.3-0.5-2
				c-0.1-0.7-0.2-1.2-0.3-1.9c0-0.5-0.1-0.9-0.1-1.3v-1.3c0-0.5,0.1-0.9,0.1-1.3c0-0.3,0.1-0.6,0.1-0.8l0,0c0-0.2-0.1-0.3,0-0.5
				v-0.5c0.1-0.5,0.1-1,0.2-1.4c0.1-0.7,0.3-1.4,0.5-2c0.3-1.3,0.8-2.5,1.3-3.7c0-0.1,0.1-0.2,0.1-0.3s0.1-0.2,0.1-0.3
				c0.3-0.6,0.6-1.2,0.9-1.8c0.1-0.2,0.2-0.3,0.3-0.5c1.2-2,2.7-3.9,4.4-5.6l0.5-0.5c0.3-0.3,0.6-0.5,0.9-0.8
				c0.2-0.2,0.4-0.3,0.6-0.5c0.4-0.4,0.9-0.7,1.3-1c0.1,0,0.1-0.1,0.2-0.1c1.2-0.8,2.4-1.4,3.6-2c0.1,0,0.1,0,0.1-0.1
				c1.2-0.5,2.5-1,3.7-1.3c0.3-0.1,0.6-0.2,0.9-0.2c1.3-0.3,2.7-0.5,4-0.7c0.5,0,0.9-0.1,1.3-0.1h1.3c0.4,0,0.9,0,1.3,0.1
				c1.4,0.1,2.7,0.3,4,0.7c0.3,0.1,0.6,0.1,0.9,0.2c1.3,0.3,2.5,0.8,3.7,1.3c0.1,0,0.1,0,0.1,0.1c0,0,0,0,0,0c1.3,0.6,2.5,1.2,3.6,2
				l0.2,0.1c0.5,0.3,0.9,0.6,1.3,1c0.2,0.2,0.4,0.3,0.6,0.5c0.3,0.3,0.6,0.5,0.9,0.8l0.5,0.5c1.7,1.7,3.2,3.5,4.4,5.6
				c0.1,0.2,0.2,0.3,0.3,0.5c0.3,0.6,0.7,1.2,1,1.8c0.1,0.1,0.2,0.3,0.2,0.5c0.5,1.2,1,2.5,1.3,3.7c0.2,0.7,0.3,1.3,0.5,2
				c0.1,0.7,0.2,1.2,0.3,1.9c0,0.2,0,0.4,0.1,0.6v0.7C290.2,264.4,290.3,264.9,290.3,265.3z"/>
		</g>
		<path id="Path_30" class="st0" d="M326.8,316v26.8c0,0.6,0,0.7-0.5,0.7h-84.8c-0.6,0-1-0.1-1-0.7v-28.1c0.3-6.2,2.7-12,6.9-16.6
			c0.1-0.1,0.2-0.3,0.4-0.4c2-2.1,4.3-3.8,6.9-5.1c0.2-0.1,0.3-0.2,0.5-0.2c0.7-0.3,1.4-0.6,2.2-0.9c0.2-0.1,0.3-0.1,0.5-0.2l2-0.6
			l2.6,2.3c2.3,1.8,4.9,3.3,7.6,4.5c0.5,0.2,1.1,0.5,1.5,0.7c6.2,2.4,12.9,2.9,19.4,1.6c0.3-0.1,0.6-0.1,0.9-0.2h1.2
			c1.2,0,2.2-0.9,3.4-1.3c0.4-0.2,0.8-0.5,1.2-0.8c2.1-1,4.1-2.2,5.9-3.6l0,0c0.2,0,0.4-0.2,0.6-0.4c1.2-0.9,2.4-1.9,3.5-3
			c10.6,2.5,18.5,12.2,19.1,24C326.9,315.1,326.9,315.6,326.8,316z"/>
	</g>
	<path id="Path_31" class="st1" d="M5192.8,4287.6l-25.4-20.3v-32.6c0-2.4-2-4.3-4.4-4.2c0,0,0,0,0,0h-1.5c-2.1,0-3.9,1.7-3.9,3.8
		c0,0,0,0.1,0,0.1v31.4l-27.5,21.8c-1.9,1.5-2.3,4.3-0.8,6.2c0,0,0,0,0,0l0.8,1.1c1.5,1.9,4.3,2.2,6.2,0.7c0,0,0,0,0,0l25.1-20
		l25.2,20c1.9,1.5,4.7,1.2,6.2-0.7c0,0,0,0,0,0l0.9-1.1C5195,4291.9,5194.7,4289.1,5192.8,4287.6z"/>
</g>
</svg>
